<svg xmlns="http://www.w3.org/2000/svg" viewBox="0 0 156.575 45.873"><path fill="#000000" d="m36.443 156.078 6.792 12.93c.459.883 1.6 1.595 2.548 1.595l13.848-.03c.942-.004 1.33-.718.871-1.6l-6.791-12.931c-.465-.883-1.601-1.595-2.549-1.595l-13.848.03h-.065c-.894.034-1.26.741-.806 1.6M62.745 171.144l4.113 7.669c.277.524.96.942 1.525.936l8.251-.089c.56-.004.789-.435.512-.953l-4.114-7.669c-.276-.524-.965-.941-1.524-.936l-8.251.083h-.03c-.541.025-.76.441-.482.96" transform="translate(-36.248 -141.552)"/><path fill="#000000" d="m62.792 142.023-8.246 10.588c-.565.724-.641 2.019-.17 2.896l6.897 12.871c.471.877 1.307 1.007 1.872.282l8.251-10.587c.56-.724.636-2.019.165-2.902l-6.898-12.865c-.27-.512-.665-.765-1.06-.754-.287.013-.576.165-.811.471M60.861 171.274l-4.914 6.309c-.336.43-.383 1.2-.1 1.724l4.108 7.669c.282.524.783.6 1.118.17l4.914-6.308c.33-.43.377-1.207.1-1.73l-4.113-7.67c-.16-.3-.395-.452-.63-.447-.17.004-.342.1-.483.283M153.803 173.522h-2.754v-20.734h2.754zm0 0" transform="translate(-36.248 -141.552)"/><path fill="#000000" d="M101.706 159.338a7.15 7.15 0 0 0-7.151 7.157h-.006v13.207h2.754v-13.207h.012a4.423 4.423 0 1 1 8.846 0 4.424 4.424 0 0 1-4.426 4.426 4.4 4.4 0 0 1-3.413-1.625v3.496a7.1 7.1 0 0 0 3.384.854c3.949 0 7.156-3.202 7.156-7.151a7.157 7.157 0 0 0-7.156-7.157M117.231 159.338a7.153 7.153 0 0 0-7.156 7.157v13.207h2.748v-13.207h.018a4.42 4.42 0 0 1 4.42-4.426 4.42 4.42 0 0 1 4.425 4.426 4.424 4.424 0 0 1-4.425 4.426 4.42 4.42 0 0 1-3.42-1.625v3.496a7.15 7.15 0 0 0 10.54-6.297 7.15 7.15 0 0 0-7.15-7.157M85.71 152.788c-3.95 0-7.151 3.207-7.151 7.156v13.578h2.754v-13.578h.006a4.393 4.393 0 1 1 8.787 0h.006v1.554h-7.074v2.754h7.074v9.27h2.754v-13.578a7.157 7.157 0 0 0-7.157-7.156" transform="translate(-36.248 -141.552)"/><path fill="#000000" d="M141.85 159.944a4.4 4.4 0 0 1 4.402-4.396v-.004h3.467v-2.754h-3.467a7.157 7.157 0 0 0-7.156 7.156v13.578h2.754v-8.987h7.616v-2.754h-7.616zM165.333 159.432v8.658a3.206 3.206 0 0 1-6.41 0h-.006v-8.658h-2.754v8.67h.006a5.96 5.96 0 0 0 4.579 5.72v5.88h2.754v-5.88a5.96 5.96 0 0 0 4.585-5.72v-8.67zM180.817 167.578a4.37 4.37 0 0 1-2.054 2.725 4.4 4.4 0 0 1-6.009-1.607 4.4 4.4 0 0 1 1.613-6.009 4.39 4.39 0 0 1 5.12.53l-6.186 3.572 1.378 2.384 8.651-4.997a7 7 0 0 0-.577-1.26 7.15 7.15 0 0 0-9.77-2.613 7.15 7.15 0 0 0-2.613 9.77c1.972 3.42 6.345 4.59 9.77 2.62a7.15 7.15 0 0 0 3.49-5.115zM192.264 159.338c-1.66 0-3.184.571-4.396 1.519v-1.454h-2.755v14.119h2.755v-7.027a4.397 4.397 0 0 1 4.396-4.397v-.004h.56v-2.754zm0 0" transform="translate(-36.248 -141.552)"/><path fill="#000000" d="m134.835 166.977-6.851-3.195a.69.69 0 0 1-.318-.9.68.68 0 0 1 .618-.389v-.004h7.816v-2.756h-7.816v.004a3.434 3.434 0 0 0-1.465 6.539l6.85 3.195a.68.68 0 0 1 .33.906.67.67 0 0 1-.618.39v.003h-8.004v2.749h8.004c1.295 0 2.53-.736 3.113-1.984a3.427 3.427 0 0 0-1.66-4.561" transform="translate(-36.248 -141.552)"/></svg>